# xmcd CD database file
#
# Track frame offsets:
#	182
#	13902
#	23935
#	33735
#	47760
#	58722
#	71635
#	84345
#	97120
#	108527
#	121767
#	131995
#	144715
#	157072
#	167502
#	178107
#
# Disc length: 2553 seconds
#
# Revision: 3
# Processed by: cddbd v1.5.2PL0 Copyright (c) Steve Scherf et al.
# Submitted via: CDex 1.50
#
DISCID=e909f710
DTITLE=Various Artist - 16 All Time Country Greats - CD 09
DYEAR=1989
DGENRE=Country
TTITLE0=Kingston Trio - Tom Dooley
TTITLE1=Dolly Parton - Release Me
TTITLE2=Johnny Cash - Rock Island Line
TTITLE3=Bob Luman - Lonely Women Make Good Lovers
TTITLE4=Bob Luman - Wind Me Up
TTITLE5=Johnny Dollar - The Meeting Of The Board
TTITLE6=Willie Nelson - Any Old Arms Won't Do
TTITLE7=Patsy Cline - I Fall To Pieces
TTITLE8=Frankie Laine - Answer Me
TTITLE9=George Morgan - Red Rose From The Blue Side Of The Town
TTITLE10=George Jones - Developing My Pictures
TTITLE11=Bobby Helms - Fraulein
TTITLE12=Tommy Cash - Six White Horses
TTITLE13=Maxime Brown - My Biggest Mistake
TTITLE14=Del Wood - Snowbird
TTITLE15=Kenny Rogers - But You Know That I Love You
EXTD=YEAR: 1989
EXTT0=
EXTT1=
EXTT2=
EXTT3=
EXTT4=
EXTT5=
EXTT6=
EXTT7=
EXTT8=
EXTT9=
EXTT10=
EXTT11=
EXTT12=
EXTT13=
EXTT14=
EXTT15=
PLAYORDER=
